<svg width="26" height="26" viewBox="0 0 26 26" fill="none" xmlns="http://www.w3.org/2000/svg">
<path fill-rule="evenodd" clip-rule="evenodd" d="M5.73405 5.73405C6.15712 5.31098 6.84305 5.31098 7.26611 5.73405L13.0001 11.468L18.7341 5.73405C19.1572 5.31098 19.8431 5.31098 20.2662 5.73405C20.6892 6.15712 20.6892 6.84305 20.2662 7.26611L14.5322 13.0001L20.2661 18.734C20.6891 19.1571 20.6891 19.843 20.2661 20.2661C19.843 20.6891 19.1571 20.6891 18.734 20.2661L13.0001 14.5322L7.26611 20.2662C6.84305 20.6892 6.15712 20.6892 5.73405 20.2662C5.31098 19.8431 5.31098 19.1572 5.73405 18.7341L11.468 13.0001L5.73405 7.26611C5.31098 6.84305 5.31098 6.15712 5.73405 5.73405Z" fill="#0F0F0F"/>
</svg>
