<svg width="33" height="33" viewBox="0 0 33 33" fill="none" xmlns="http://www.w3.org/2000/svg">
<g clip-path="url(#clip0_1871_7629)">
<path d="M16.5 2.97275C20.9055 2.97275 21.428 2.98925 23.1674 3.069C24.9659 3.1515 26.818 3.56125 28.1284 4.87162C29.4511 6.19438 29.8485 8.02863 29.931 9.83263C30.0107 11.572 30.0272 12.0945 30.0272 16.5C30.0272 20.9055 30.0107 21.428 29.931 23.1674C29.8499 24.9563 29.4305 26.8263 28.1284 28.1284C26.8056 29.4511 24.9728 29.8485 23.1674 29.931C21.428 30.0107 20.9055 30.0272 16.5 30.0272C12.0945 30.0272 11.572 30.0107 9.83263 29.931C8.0575 29.8499 6.16275 29.4209 4.87162 28.1284C3.55575 26.8125 3.1515 24.9604 3.069 23.1674C2.98925 21.428 2.97275 20.9055 2.97275 16.5C2.97275 12.0945 2.98925 11.572 3.069 9.83263C3.15013 8.05062 3.57362 6.16963 4.87162 4.87162C6.19163 3.55163 8.03275 3.1515 9.83263 3.069C11.572 2.98925 12.0945 2.97275 16.5 2.97275ZM16.5 0C12.0189 0 11.4565 0.01925 9.6965 0.099C7.14588 0.215875 4.61312 0.925375 2.76925 2.76925C0.9185 4.62 0.215875 7.14725 0.099 9.6965C0.01925 11.4565 0 12.0189 0 16.5C0 20.9811 0.01925 21.5435 0.099 23.3035C0.215875 25.8514 0.928125 28.391 2.76925 30.2308C4.61863 32.0801 7.15 32.7841 9.6965 32.901C11.4565 32.9808 12.0189 33 16.5 33C20.9811 33 21.5435 32.9808 23.3035 32.901C25.8528 32.7841 28.3883 32.0732 30.2308 30.2308C32.0829 28.3786 32.7841 25.8528 32.901 23.3035C32.9808 21.5435 33 20.9811 33 16.5C33 12.0189 32.9808 11.4565 32.901 9.6965C32.7841 7.14588 32.0732 4.61175 30.2308 2.76925C28.3841 0.922625 25.8459 0.2145 23.3035 0.099C21.5435 0.01925 20.9811 0 16.5 0Z" fill="#141414"/>
<path d="M16.5001 8.02734C11.821 8.02734 8.02734 11.821 8.02734 16.5001C8.02734 21.1792 11.821 24.9728 16.5001 24.9728C21.1792 24.9728 24.9728 21.1792 24.9728 16.5001C24.9728 11.821 21.1792 8.02734 16.5001 8.02734ZM16.5001 22.0001C13.4627 22.0001 11.0001 19.5375 11.0001 16.5001C11.0001 13.4627 13.4627 11.0001 16.5001 11.0001C19.5375 11.0001 22.0001 13.4627 22.0001 16.5001C22.0001 19.5375 19.5375 22.0001 16.5001 22.0001Z" fill="#141414"/>
<path d="M25.3081 9.67167C26.4016 9.67167 27.2881 8.78519 27.2881 7.69167C27.2881 6.59815 26.4016 5.71167 25.3081 5.71167C24.2146 5.71167 23.3281 6.59815 23.3281 7.69167C23.3281 8.78519 24.2146 9.67167 25.3081 9.67167Z" fill="#141414"/>
</g>
<defs>
<clipPath id="clip0_1871_7629">
<rect width="33" height="33" fill="white"/>
</clipPath>
</defs>
</svg>
