<svg width="170" height="33" viewBox="0 0 170 33" fill="none" xmlns="http://www.w3.org/2000/svg">
<path d="M141.373 0.493164H148.776L163.488 22.3452V0.493164H170V32.5066H162.597L147.886 10.3093V32.5066H141.373V0.493164Z" fill="black"/>
<path d="M127.51 0.493164H134.819V32.5066H127.51V0.493164Z" fill="black"/>
<path d="M98.1357 0.493164H110.318C113.285 0.493164 115.628 0.706916 117.345 1.13442C119.095 1.56192 120.36 2.31828 121.141 3.40348C121.953 4.4558 122.359 5.93562 122.359 7.84294V13.9102C122.359 16.0148 121.921 17.6591 121.047 18.8429C120.203 20.0268 118.845 20.8654 116.971 21.3586C115.128 21.8519 112.629 22.0985 109.474 22.0985H105.445V32.5066H98.1357V0.493164ZM110.083 16.8205C111.989 16.8205 113.332 16.5903 114.113 16.1299C114.893 15.6367 115.284 14.8145 115.284 13.6636V8.53352C115.284 7.48121 114.909 6.79062 114.159 6.46178C113.441 6.13293 112.051 5.9685 109.99 5.9685H105.445V16.8205H110.083Z" fill="black"/>
<path d="M77.7755 33C76.0888 33 74.527 32.8849 73.0902 32.6547C71.6846 32.4245 70.2165 32.0299 68.686 31.4708C67.0305 30.8789 65.7342 29.9253 64.7972 28.6099C63.8601 27.2616 63.3916 25.6338 63.3916 23.7265V9.71749C63.3916 8.13901 63.7196 6.72496 64.3755 5.47534C65.0627 4.22571 65.9373 3.23916 66.9993 2.51569C67.9363 1.89088 69.092 1.36472 70.4664 0.937219C71.8408 0.509715 73.1214 0.246637 74.3083 0.147983C75.4016 0.0493277 76.5573 0 77.7755 0C79.2123 0 80.4617 0.0657705 81.5237 0.19731C82.5857 0.295966 83.7726 0.526159 85.0845 0.887893C86.5838 1.34828 87.8176 1.90732 88.7859 2.56502C89.7542 3.22272 90.5663 4.1435 91.2223 5.32736C91.9094 6.5441 92.253 8.00748 92.253 9.71749V23.7265C92.253 25.5022 91.8001 27.0314 90.8943 28.3139C90.0197 29.5964 88.8015 30.5665 87.2398 31.2242C84.4286 32.4081 81.2738 33 77.7755 33ZM77.8692 27.5247C78.8999 27.5247 79.7589 27.4918 80.4461 27.426C81.1645 27.3274 81.8985 27.1629 82.6482 26.9327C83.3978 26.7025 83.9601 26.3244 84.3349 25.7982C84.7409 25.2392 84.944 24.5486 84.944 23.7265V9.66816C84.944 8.15546 84.3661 7.0867 83.2104 6.46188C82.0547 5.80419 80.2587 5.47534 77.8223 5.47534C75.386 5.47534 73.5899 5.78774 72.4342 6.41256C71.2785 7.03737 70.7007 8.12257 70.7007 9.66816V23.7265C70.7007 24.5486 70.9037 25.2392 71.3098 25.7982C71.7158 26.3244 72.3093 26.7025 73.0902 26.9327C73.8398 27.1629 74.5582 27.3274 75.2454 27.426C75.9638 27.4918 76.8384 27.5247 77.8692 27.5247Z" fill="black"/>
<path d="M29.9609 0.493164H37.27V13.3183H50.2014V0.493164H57.5105V32.5066H50.2014V18.7936H37.27V32.5066H29.9609V0.493164Z" fill="black"/>
<path d="M11.3853 33C8.48039 33 4.88833 32.704 0.609089 32.1121V26.2422C5.91909 27.0972 9.54239 27.5247 11.479 27.5247C15.5396 27.5247 17.5699 26.423 17.5699 24.2197V22.148C17.5699 21.0957 17.2731 20.29 16.6797 19.7309C16.1174 19.1719 15.0867 18.8924 13.5874 18.8924H10.0265C3.34218 18.8924 0 16.0972 0 10.5067V8.13901C0 5.3438 1.10885 3.28849 3.32656 1.9731C5.54427 0.657699 9.05824 0 13.8685 0C16.3673 0 19.5377 0.213752 23.3796 0.641256V6.36323C18.6631 5.7713 15.4146 5.47534 13.6342 5.47534C11.1666 5.47534 9.51116 5.68909 8.6678 6.11659C7.76198 6.57698 7.30906 7.30045 7.30906 8.28699V10.5561C7.30906 12.2332 8.65218 13.0717 11.3384 13.0717H14.993C18.4601 13.0717 20.9745 13.7459 22.5363 15.0942C24.098 16.4425 24.8789 18.4978 24.8789 21.2601V23.3812C24.8789 27.1958 23.5827 29.7773 20.9901 31.1256C19.7407 31.8161 18.3507 32.293 16.8202 32.5561C15.3209 32.852 13.5093 33 11.3853 33Z" fill="black"/>
</svg>
