<svg width="33" height="33" viewBox="0 0 33 33" fill="none" xmlns="http://www.w3.org/2000/svg">
<g clip-path="url(#clip0_1871_7622)">
<path fill-rule="evenodd" clip-rule="evenodd" d="M28.1364 4.796C25.0481 1.705 20.9424 0.001375 16.5685 0C7.55538 0 0.21975 7.33425 0.215625 16.3515C0.21425 19.2335 0.96775 22.0468 2.39912 24.5273L0.078125 33L8.74613 30.7258C11.1345 32.0293 13.824 32.7154 16.5602 32.7168H16.5671C25.5789 32.7168 32.9159 25.3811 32.92 16.3639C32.9228 11.9955 31.2233 7.88562 28.1364 4.796ZM16.5685 29.9544H16.563C14.1237 29.9544 11.7326 29.2985 9.64538 28.0596L9.149 27.7654L4.00513 29.1143L5.37875 24.0982L5.05563 23.584C3.69438 21.4198 2.97663 18.9186 2.978 16.3515C2.98075 8.85775 9.07888 2.761 16.5754 2.761C20.2054 2.761 23.6181 4.17725 26.1839 6.74575C28.7496 9.31563 30.1618 12.7297 30.1604 16.3611C30.1563 23.8576 24.0595 29.9544 16.5685 29.9544ZM24.0238 19.7753C23.6154 19.5704 21.6065 18.5818 21.2311 18.4456C20.8571 18.3095 20.5849 18.2407 20.3113 18.6491C20.0376 19.0575 19.2566 19.9788 19.0174 20.2524C18.7795 20.5246 18.5403 20.559 18.1319 20.3541C17.7235 20.1493 16.4062 19.7189 14.8456 18.326C13.6315 17.2425 12.8106 15.9046 12.5728 15.4949C12.3349 15.0851 12.548 14.8651 12.7515 14.6616C12.9358 14.4788 13.1599 14.1845 13.3648 13.9453C13.571 13.7088 13.6384 13.5383 13.7759 13.2646C13.912 12.9924 13.8446 12.7531 13.7415 12.5483C13.6384 12.3448 12.8216 10.3331 12.482 9.515C12.1506 8.7175 11.8138 8.82613 11.5621 8.81375C11.3243 8.80138 11.052 8.8 10.7784 8.8C10.5061 8.8 10.0634 8.90175 9.68937 9.3115C9.31537 9.72125 8.25938 10.7099 8.25938 12.7201C8.25938 14.7318 9.72375 16.6746 9.92725 16.9469C10.1308 17.2191 12.8079 21.3469 16.9067 23.1165C17.8816 23.5373 18.6434 23.7889 19.236 23.9773C20.215 24.288 21.106 24.244 21.81 24.1395C22.5951 24.0226 24.2273 23.1509 24.5683 22.1966C24.9093 21.2424 24.9093 20.4229 24.8061 20.2537C24.7044 20.0819 24.4321 19.9801 24.0238 19.7753Z" fill="black"/>
</g>
<defs>
<clipPath id="clip0_1871_7622">
<rect width="33" height="33" fill="white"/>
</clipPath>
</defs>
</svg>
